<?xml version="1.0" standalone="no"?>
<!DOCTYPE svg PUBLIC "-//W3C//DTD SVG 20010904//EN"
 "http://www.w3.org/TR/2001/REC-SVG-20010904/DTD/svg10.dtd">
<svg version="1.0" xmlns="http://www.w3.org/2000/svg"
 width="535.000000pt" height="535.000000pt" viewBox="0 0 535.000000 535.000000"
 preserveAspectRatio="xMidYMid meet">
<metadata>
Created by potrace 1.14, written by Peter Selinger 2001-2017
</metadata>
<g transform="translate(0.000000,535.000000) scale(0.100000,-0.100000)"
fill="#000000" stroke="none">
<path d="M2325 5260 c-472 -72 -873 -238 -1235 -508 -138 -104 -363 -321 -469
-453 -299 -370 -497 -833 -557 -1300 -23 -188 -16 -592 15 -764 100 -560 369
-1066 769 -1446 409 -389 897 -625 1482 -716 143 -22 507 -25 650 -4 665 93
1170 342 1606 793 409 423 650 931 715 1508 27 243 9 601 -42 855 -52 257
-194 596 -357 855 -361 572 -999 1010 -1668 1145 -284 58 -663 72 -909 35z
m632 -325 c485 -64 925 -276 1280 -618 329 -317 545 -709 643 -1167 45 -212
45 -672 0 -890 -50 -241 -173 -546 -303 -752 -92 -145 -165 -236 -324 -399
-135 -138 -153 -160 -153 -190 -1 -25 -10 -5 -39 79 -22 66 -54 135 -76 168
l-38 55 94 88 c52 49 108 107 124 130 16 24 47 52 69 63 118 59 154 148 100
248 l-26 47 21 99 21 99 -18 182 c-19 178 -20 183 -62 269 -48 97 -130 217
-193 282 -84 88 -307 194 -441 211 -182 22 -411 -16 -564 -93 -119 -61 -246
-186 -361 -357 -56 -82 -58 -89 -64 -165 -3 -43 -18 -117 -33 -164 -41 -129
-38 -168 20 -273 47 -88 48 -88 29 -113 -55 -77 -64 -119 -39 -177 17 -41 51
-72 100 -92 52 -22 69 -14 61 27 -5 29 -2 26 24 -20 89 -157 206 -254 387
-322 105 -39 56 -39 -56 0 -63 22 -86 26 -93 17 -93 -138 -143 -281 -167 -482
-21 -177 -16 -183 -95 131 -78 308 -154 589 -211 771 l-34 111 -48 16 c-47 16
-242 71 -291 83 -13 3 -26 1 -31 -6 -14 -23 -51 38 -48 78 3 34 8 38 69 68 47
22 80 47 114 87 43 49 57 58 127 82 43 14 80 29 82 33 3 4 -13 31 -34 60 -63
83 -57 94 53 107 31 3 60 10 63 15 3 5 -7 46 -21 90 -15 45 -23 84 -19 89 5 4
45 23 89 41 75 30 155 74 155 84 0 2 -33 23 -72 46 -90 53 -168 110 -168 124
0 5 30 21 68 33 131 46 342 156 342 180 0 4 -67 36 -150 71 -82 35 -150 68
-150 74 0 5 63 70 141 145 98 94 136 138 127 143 -7 4 -91 19 -185 34 -104 17
-173 32 -173 39 0 6 47 94 105 196 58 101 105 188 105 193 0 5 -8 6 -17 2 -98
-39 -331 -115 -347 -113 -33 5 -47 81 -53 291 l-6 187 -73 -39 c-97 -53 -173
-109 -265 -198 l-75 -73 -25 28 c-14 15 -59 70 -101 122 -42 52 -99 117 -126
144 -57 55 -54 58 -72 -69 -20 -142 -70 -315 -91 -315 -5 0 -52 18 -104 40
-97 42 -252 86 -262 76 -4 -3 10 -45 31 -92 40 -91 76 -218 76 -266 0 -22 -4
-28 -22 -28 -48 0 -404 -32 -432 -39 l-30 -7 97 -103 c96 -103 158 -185 171
-228 9 -29 -10 -47 -181 -171 -73 -52 -133 -99 -133 -103 0 -5 12 -11 28 -15
148 -32 231 -73 302 -151 l42 -45 -106 -107 c-58 -58 -106 -114 -106 -123 0
-12 23 -24 82 -44 46 -15 106 -35 134 -46 l51 -18 -8 -45 c-5 -24 -15 -71 -24
-104 -8 -32 -15 -71 -15 -85 0 -25 2 -26 53 -25 28 0 76 4 105 8 34 5 56 4 61
-3 5 -6 12 -42 16 -81 10 -98 10 -98 79 -70 32 13 60 26 63 29 3 2 -8 24 -25
48 -16 24 -41 66 -54 93 -28 55 -78 207 -77 233 0 9 13 -22 29 -70 73 -218
141 -312 275 -378 81 -40 85 -44 85 -75 l0 -34 -221 -73 c-212 -70 -222 -74
-235 -104 -7 -18 -52 -166 -100 -330 -47 -165 -88 -301 -90 -303 -2 -2 -8 7
-13 20 -5 13 -40 58 -77 99 -340 380 -542 850 -577 1344 -48 683 193 1316 680
1787 184 178 353 296 583 408 216 106 480 184 710 210 130 15 429 12 557 -4z"/>
</g>
</svg>
